<?xml version="1.0" encoding="UTF-8"?> <svg xmlns="http://www.w3.org/2000/svg" width="40" height="40" viewBox="0 0 40 40" fill="none"> <rect width="40" height="40" fill="#242424"></rect> <path d="M17.5164 16.96H16.0364C16.0764 16.2533 16.2831 15.6 16.6564 15C17.3231 13.96 18.3564 13.44 19.7564 13.44C20.9431 13.44 21.8631 13.7933 22.5164 14.5C23.1831 15.2067 23.5164 16.0533 23.5164 17.04C23.5164 18.44 22.9431 19.4267 21.7964 20C21.9697 20.0667 22.1364 20.16 22.2964 20.28C22.4697 20.3867 22.6764 20.56 22.9164 20.8C23.1564 21.04 23.3497 21.3733 23.4964 21.8C23.6431 22.2133 23.7164 22.6867 23.7164 23.22C23.7164 24.4333 23.3231 25.4067 22.5364 26.14C21.7631 26.8733 20.7897 27.24 19.6164 27.24C18.8297 27.24 18.0964 27.06 17.4164 26.7C16.7364 26.3267 16.2297 25.74 15.8964 24.94C15.7231 24.5133 15.6231 24.0467 15.5964 23.54H17.0764C17.1431 24.0867 17.3031 24.5333 17.5564 24.88C18.0097 25.5467 18.6964 25.88 19.6164 25.88C20.3497 25.88 20.9697 25.62 21.4764 25.1C21.9831 24.5667 22.2364 23.9267 22.2364 23.18C22.2364 22.0867 21.7964 21.34 20.9164 20.94C20.4764 20.7267 19.9697 20.6333 19.3964 20.66V19.34C19.9697 19.38 20.4764 19.2867 20.9164 19.06C21.6631 18.6733 22.0364 18.0133 22.0364 17.08C22.0364 16.4267 21.8497 15.8867 21.4764 15.46C21.1031 15.02 20.5297 14.8 19.7564 14.8C19.0097 14.8 18.4364 15.0533 18.0364 15.56C17.7297 15.96 17.5564 16.4267 17.5164 16.96Z" fill="#9A9A9A"></path> </svg> 