<?xml version="1.0" encoding="UTF-8"?> <svg xmlns="http://www.w3.org/2000/svg" width="40" height="40" viewBox="0 0 40 40" fill="none"> <rect width="40" height="40" fill="#242424"></rect> <path d="M23.8964 13.66V15.02H19.6164L18.7564 17.9C18.9831 17.8467 19.2631 17.82 19.5964 17.82C20.9164 17.82 21.9764 18.26 22.7764 19.14C23.5897 20.02 23.9964 21.12 23.9964 22.44C23.9964 23.88 23.5231 25.04 22.5764 25.92C21.6431 26.8 20.4964 27.24 19.1364 27.24C17.9897 27.24 16.9964 26.8933 16.1564 26.2C15.6764 25.7867 15.2897 25.3333 14.9964 24.84L16.1764 24C16.3764 24.4 16.6764 24.76 17.0764 25.08C17.7297 25.6133 18.4497 25.88 19.2364 25.88C20.1697 25.88 20.9497 25.5467 21.5764 24.88C22.2031 24.2133 22.5164 23.4067 22.5164 22.46C22.5164 21.5 22.2031 20.7133 21.5764 20.1C20.9631 19.4867 20.1831 19.18 19.2364 19.18C18.3964 19.18 17.5364 19.4867 16.6564 20.1L18.5964 13.66H23.8964Z" fill="#9A9A9A"></path> </svg> 