<?xml version="1.0" encoding="UTF-8"?> <svg xmlns="http://www.w3.org/2000/svg" width="64" height="64" viewBox="0 0 64 64" fill="none"> <circle opacity="0.5" cx="32" cy="32" r="31.5" stroke="#9A9A9A"></circle> <g clip-path="url(#clip0)"> <path d="M40.2607 31.2646H23.5925C23.1864 31.2646 22.8572 31.5941 22.8572 32C22.8572 32.406 23.1864 32.7354 23.5925 32.7354H40.2607C40.6668 32.7354 40.9961 32.4062 40.9961 32C40.9961 31.5938 40.6669 31.2646 40.2607 31.2646Z" fill="white"></path> <path d="M40.9274 31.4799L33.7211 24.2733C33.4338 23.9863 32.9686 23.9863 32.6813 24.2733C32.394 24.5606 32.394 25.0263 32.6813 25.3134L39.3677 32L32.6813 38.6867C32.394 38.9737 32.394 39.4394 32.6813 39.7265C32.8249 39.8701 33.0129 39.9419 33.2012 39.9419C33.3894 39.9419 33.5774 39.8701 33.7211 39.7265L40.9274 32.5199C41.2147 32.2326 41.2147 31.7669 40.9274 31.4799Z" fill="white"></path> </g> <defs> <clipPath id="clip0"> <rect width="18.2857" height="18.2857" fill="white" transform="translate(22.8572 22.8571)"></rect> </clipPath> </defs> </svg> 