<?xml version="1.0" encoding="UTF-8"?> <svg xmlns="http://www.w3.org/2000/svg" width="124" height="76" viewBox="0 0 124 76" fill="none"> <circle cx="2" cy="2" r="2" fill="#333333"></circle> <circle cx="38" cy="2" r="2" fill="#333333"></circle> <circle cx="98" cy="2" r="2" fill="#333333"></circle> <circle cx="14" cy="2" r="2" fill="#333333"></circle> <circle cx="74" cy="2" r="2" fill="#333333"></circle> <circle cx="50" cy="2" r="2" fill="#333333"></circle> <circle cx="110" cy="2" r="2" fill="#333333"></circle> <circle cx="26" cy="2" r="2" fill="#333333"></circle> <circle cx="86" cy="2" r="2" fill="#333333"></circle> <circle cx="62" cy="2" r="2" fill="#333333"></circle> <circle cx="122" cy="2" r="2" fill="#333333"></circle> <circle cx="2" cy="26" r="2" fill="#333333"></circle> <circle cx="38" cy="26" r="2" fill="#333333"></circle> <circle cx="98" cy="26" r="2" fill="#333333"></circle> <circle cx="14" cy="26" r="2" fill="#333333"></circle> <circle cx="74" cy="26" r="2" fill="#333333"></circle> <circle cx="50" cy="26" r="2" fill="#333333"></circle> <circle cx="110" cy="26" r="2" fill="#333333"></circle> <circle cx="26" cy="26" r="2" fill="#333333"></circle> <circle cx="86" cy="26" r="2" fill="#333333"></circle> <circle cx="62" cy="26" r="2" fill="#333333"></circle> <circle cx="122" cy="26" r="2" fill="#333333"></circle> <circle cx="2" cy="50" r="2" fill="#333333"></circle> <circle cx="38" cy="50" r="2" fill="#333333"></circle> <circle cx="98" cy="50" r="2" fill="#333333"></circle> <circle cx="14" cy="50" r="2" fill="#333333"></circle> <circle cx="74" cy="50" r="2" fill="#333333"></circle> <circle cx="50" cy="50" r="2" fill="#333333"></circle> <circle cx="110" cy="50" r="2" fill="#333333"></circle> <circle cx="26" cy="50" r="2" fill="#333333"></circle> <circle cx="86" cy="50" r="2" fill="#333333"></circle> <circle cx="62" cy="50" r="2" fill="#333333"></circle> <circle cx="122" cy="50" r="2" fill="#333333"></circle> <circle cx="2" cy="14" r="2" fill="#333333"></circle> <circle cx="38" cy="14" r="2" fill="#333333"></circle> <circle cx="98" cy="14" r="2" fill="#333333"></circle> <circle cx="14" cy="14" r="2" fill="#333333"></circle> <circle cx="74" cy="14" r="2" fill="#333333"></circle> <circle cx="50" cy="14" r="2" fill="#333333"></circle> <circle cx="110" cy="14" r="2" fill="#333333"></circle> <circle cx="26" cy="14" r="2" fill="#333333"></circle> <circle cx="86" cy="14" r="2" fill="#333333"></circle> <circle cx="62" cy="14" r="2" fill="#333333"></circle> <circle cx="122" cy="14" r="2" fill="#333333"></circle> <circle cx="2" cy="38" r="2" fill="#333333"></circle> <circle cx="38" cy="38" r="2" fill="#333333"></circle> <circle cx="98" cy="38" r="2" fill="#333333"></circle> <circle cx="14" cy="38" r="2" fill="#333333"></circle> <circle cx="74" cy="38" r="2" fill="#333333"></circle> <circle cx="50" cy="38" r="2" fill="#333333"></circle> <circle cx="110" cy="38" r="2" fill="#333333"></circle> <circle cx="26" cy="38" r="2" fill="#333333"></circle> <circle cx="86" cy="38" r="2" fill="#333333"></circle> <circle cx="62" cy="38" r="2" fill="#333333"></circle> <circle cx="122" cy="38" r="2" fill="#333333"></circle> <circle cx="2" cy="62" r="2" fill="#333333"></circle> <circle cx="38" cy="62" r="2" fill="#333333"></circle> <circle cx="98" cy="62" r="2" fill="#333333"></circle> <circle cx="14" cy="62" r="2" fill="#333333"></circle> <circle cx="74" cy="62" r="2" fill="#333333"></circle> <circle cx="50" cy="62" r="2" fill="#333333"></circle> <circle cx="110" cy="62" r="2" fill="#333333"></circle> <circle cx="26" cy="62" r="2" fill="#333333"></circle> <circle cx="86" cy="62" r="2" fill="#333333"></circle> <circle cx="62" cy="62" r="2" fill="#333333"></circle> <circle cx="122" cy="62" r="2" fill="#333333"></circle> <circle cx="2" cy="74" r="2" fill="#333333"></circle> <circle cx="38" cy="74" r="2" fill="#333333"></circle> <circle cx="98" cy="74" r="2" fill="#333333"></circle> <circle cx="14" cy="74" r="2" fill="#333333"></circle> <circle cx="74" cy="74" r="2" fill="#333333"></circle> <circle cx="50" cy="74" r="2" fill="#333333"></circle> <circle cx="110" cy="74" r="2" fill="#333333"></circle> <circle cx="26" cy="74" r="2" fill="#333333"></circle> <circle cx="86" cy="74" r="2" fill="#333333"></circle> <circle cx="62" cy="74" r="2" fill="#333333"></circle> <circle cx="122" cy="74" r="2" fill="#333333"></circle> </svg> 