<?xml version="1.0" encoding="UTF-8"?> <svg xmlns="http://www.w3.org/2000/svg" width="64" height="64" viewBox="0 0 64 64" fill="none"> <circle opacity="0.5" cx="32" cy="32" r="31.5" transform="rotate(-180 32 32)" stroke="#9A9A9A"></circle> <g clip-path="url(#clip0)"> <path d="M23.7393 32.7354L40.4075 32.7354C40.8136 32.7354 41.1428 32.4059 41.1428 32C41.1428 31.594 40.8136 31.2646 40.4075 31.2646L23.7393 31.2646C23.3332 31.2646 23.0039 31.5938 23.0039 32C23.0039 32.4062 23.3331 32.7354 23.7393 32.7354Z" fill="white"></path> <path d="M23.0726 32.5201L30.2789 39.7267C30.5662 40.0137 31.0314 40.0137 31.3187 39.7267C31.606 39.4394 31.606 38.9737 31.3187 38.6866L24.6323 32L31.3187 25.3133C31.606 25.0263 31.606 24.5606 31.3187 24.2735C31.1751 24.1299 30.9871 24.0581 30.7988 24.0581C30.6106 24.0581 30.4226 24.1299 30.2789 24.2735L23.0726 31.4801C22.7853 31.7674 22.7853 32.2331 23.0726 32.5201Z" fill="white"></path> </g> <defs> <clipPath id="clip0"> <rect width="18.2857" height="18.2857" fill="white" transform="translate(41.1428 41.1429) rotate(-180)"></rect> </clipPath> </defs> </svg> 