<?xml version="1.0" encoding="UTF-8"?> <svg xmlns="http://www.w3.org/2000/svg" width="160" height="124" viewBox="0 0 160 124" fill="none"> <circle cx="158" cy="2" r="2" transform="rotate(90 158 2)" fill="#333333"></circle> <circle cx="158" cy="38" r="2" transform="rotate(90 158 38)" fill="#333333"></circle> <circle cx="158" cy="98" r="2" transform="rotate(90 158 98)" fill="#333333"></circle> <circle cx="158" cy="14" r="2" transform="rotate(90 158 14)" fill="#333333"></circle> <circle cx="158" cy="74" r="2" transform="rotate(90 158 74)" fill="#333333"></circle> <circle cx="158" cy="50" r="2" transform="rotate(90 158 50)" fill="#333333"></circle> <circle cx="158" cy="110" r="2" transform="rotate(90 158 110)" fill="#333333"></circle> <circle cx="158" cy="26" r="2" transform="rotate(90 158 26)" fill="#333333"></circle> <circle cx="158" cy="86" r="2" transform="rotate(90 158 86)" fill="#333333"></circle> <circle cx="158" cy="62" r="2" transform="rotate(90 158 62)" fill="#333333"></circle> <circle cx="158" cy="122" r="2" transform="rotate(90 158 122)" fill="#333333"></circle> <circle cx="134" cy="2" r="2" transform="rotate(90 134 2)" fill="#333333"></circle> <circle cx="134" cy="38" r="2" transform="rotate(90 134 38)" fill="#333333"></circle> <circle cx="134" cy="98" r="2" transform="rotate(90 134 98)" fill="#333333"></circle> <circle cx="134" cy="14" r="2" transform="rotate(90 134 14)" fill="#333333"></circle> <circle cx="134" cy="74" r="2" transform="rotate(90 134 74)" fill="#333333"></circle> <circle cx="134" cy="50" r="2" transform="rotate(90 134 50)" fill="#333333"></circle> <circle cx="134" cy="110" r="2" transform="rotate(90 134 110)" fill="#333333"></circle> <circle cx="134" cy="26" r="2" transform="rotate(90 134 26)" fill="#333333"></circle> <circle cx="134" cy="86" r="2" transform="rotate(90 134 86)" fill="#333333"></circle> <circle cx="134" cy="62" r="2" transform="rotate(90 134 62)" fill="#333333"></circle> <circle cx="134" cy="122" r="2" transform="rotate(90 134 122)" fill="#333333"></circle> <circle cx="110" cy="2" r="2" transform="rotate(90 110 2)" fill="#333333"></circle> <circle cx="110" cy="38" r="2" transform="rotate(90 110 38)" fill="#333333"></circle> <circle cx="110" cy="98" r="2" transform="rotate(90 110 98)" fill="#333333"></circle> <circle cx="110" cy="14" r="2" transform="rotate(90 110 14)" fill="#333333"></circle> <circle cx="110" cy="74" r="2" transform="rotate(90 110 74)" fill="#333333"></circle> <circle cx="110" cy="50" r="2" transform="rotate(90 110 50)" fill="#333333"></circle> <circle cx="110" cy="110" r="2" transform="rotate(90 110 110)" fill="#333333"></circle> <circle cx="110" cy="26" r="2" transform="rotate(90 110 26)" fill="#333333"></circle> <circle cx="110" cy="86" r="2" transform="rotate(90 110 86)" fill="#333333"></circle> <circle cx="110" cy="62" r="2" transform="rotate(90 110 62)" fill="#333333"></circle> <circle cx="110" cy="122" r="2" transform="rotate(90 110 122)" fill="#333333"></circle> <circle cx="146" cy="2" r="2" transform="rotate(90 146 2)" fill="#333333"></circle> <circle cx="146" cy="38" r="2" transform="rotate(90 146 38)" fill="#333333"></circle> <circle cx="146" cy="98" r="2" transform="rotate(90 146 98)" fill="#333333"></circle> <circle cx="146" cy="14" r="2" transform="rotate(90 146 14)" fill="#333333"></circle> <circle cx="146" cy="74" r="2" transform="rotate(90 146 74)" fill="#333333"></circle> <circle cx="146" cy="50" r="2" transform="rotate(90 146 50)" fill="#333333"></circle> <circle cx="146" cy="110" r="2" transform="rotate(90 146 110)" fill="#333333"></circle> <circle cx="146" cy="26" r="2" transform="rotate(90 146 26)" fill="#333333"></circle> <circle cx="146" cy="86" r="2" transform="rotate(90 146 86)" fill="#333333"></circle> <circle cx="146" cy="62" r="2" transform="rotate(90 146 62)" fill="#333333"></circle> <circle cx="146" cy="122" r="2" transform="rotate(90 146 122)" fill="#333333"></circle> <circle cx="122" cy="2" r="2" transform="rotate(90 122 2)" fill="#333333"></circle> <circle cx="122" cy="38" r="2" transform="rotate(90 122 38)" fill="#333333"></circle> <circle cx="122" cy="98" r="2" transform="rotate(90 122 98)" fill="#333333"></circle> <circle cx="122" cy="14" r="2" transform="rotate(90 122 14)" fill="#333333"></circle> <circle cx="122" cy="74" r="2" transform="rotate(90 122 74)" fill="#333333"></circle> <circle cx="122" cy="50" r="2" transform="rotate(90 122 50)" fill="#333333"></circle> <circle cx="122" cy="110" r="2" transform="rotate(90 122 110)" fill="#333333"></circle> <circle cx="122" cy="26" r="2" transform="rotate(90 122 26)" fill="#333333"></circle> <circle cx="122" cy="86" r="2" transform="rotate(90 122 86)" fill="#333333"></circle> <circle cx="122" cy="62" r="2" transform="rotate(90 122 62)" fill="#333333"></circle> <circle cx="122" cy="122" r="2" transform="rotate(90 122 122)" fill="#333333"></circle> <circle cx="98" cy="2" r="2" transform="rotate(90 98 2)" fill="#333333"></circle> <circle cx="98" cy="38" r="2" transform="rotate(90 98 38)" fill="#333333"></circle> <circle cx="98" cy="98" r="2" transform="rotate(90 98 98)" fill="#333333"></circle> <circle cx="98" cy="14" r="2" transform="rotate(90 98 14)" fill="#333333"></circle> <circle cx="98" cy="74" r="2" transform="rotate(90 98 74)" fill="#333333"></circle> <circle cx="98" cy="50" r="2" transform="rotate(90 98 50)" fill="#333333"></circle> <circle cx="98" cy="110" r="2" transform="rotate(90 98 110)" fill="#333333"></circle> <circle cx="98" cy="26" r="2" transform="rotate(90 98 26)" fill="#333333"></circle> <circle cx="98" cy="86" r="2" transform="rotate(90 98 86)" fill="#333333"></circle> <circle cx="98" cy="62" r="2" transform="rotate(90 98 62)" fill="#333333"></circle> <circle cx="98" cy="122" r="2" transform="rotate(90 98 122)" fill="#333333"></circle> <circle cx="86" cy="2" r="2" transform="rotate(90 86 2)" fill="#333333"></circle> <circle cx="86" cy="38" r="2" transform="rotate(90 86 38)" fill="#333333"></circle> <circle cx="86" cy="98" r="2" transform="rotate(90 86 98)" fill="#333333"></circle> <circle cx="86" cy="14" r="2" transform="rotate(90 86 14)" fill="#333333"></circle> <circle cx="86" cy="74" r="2" transform="rotate(90 86 74)" fill="#333333"></circle> <circle cx="86" cy="50" r="2" transform="rotate(90 86 50)" fill="#333333"></circle> <circle cx="86" cy="110" r="2" transform="rotate(90 86 110)" fill="#333333"></circle> <circle cx="86" cy="26" r="2" transform="rotate(90 86 26)" fill="#333333"></circle> <circle cx="86" cy="86" r="2" transform="rotate(90 86 86)" fill="#333333"></circle> <circle cx="86" cy="62" r="2" transform="rotate(90 86 62)" fill="#333333"></circle> <circle cx="86" cy="122" r="2" transform="rotate(90 86 122)" fill="#333333"></circle> <circle cx="74" cy="2" r="2" transform="rotate(90 74 2)" fill="#333333"></circle> <circle cx="74" cy="38" r="2" transform="rotate(90 74 38)" fill="#333333"></circle> <circle cx="74" cy="98" r="2" transform="rotate(90 74 98)" fill="#333333"></circle> <circle cx="74" cy="14" r="2" transform="rotate(90 74 14)" fill="#333333"></circle> <circle cx="74" cy="74" r="2" transform="rotate(90 74 74)" fill="#333333"></circle> <circle cx="74" cy="50" r="2" transform="rotate(90 74 50)" fill="#333333"></circle> <circle cx="74" cy="110" r="2" transform="rotate(90 74 110)" fill="#333333"></circle> <circle cx="74" cy="26" r="2" transform="rotate(90 74 26)" fill="#333333"></circle> <circle cx="74" cy="86" r="2" transform="rotate(90 74 86)" fill="#333333"></circle> <circle cx="74" cy="62" r="2" transform="rotate(90 74 62)" fill="#333333"></circle> <circle cx="74" cy="122" r="2" transform="rotate(90 74 122)" fill="#333333"></circle> <circle cx="50" cy="2" r="2" transform="rotate(90 50 2)" fill="#333333"></circle> <circle cx="50" cy="38" r="2" transform="rotate(90 50 38)" fill="#333333"></circle> <circle cx="50" cy="98" r="2" transform="rotate(90 50 98)" fill="#333333"></circle> <circle cx="50" cy="14" r="2" transform="rotate(90 50 14)" fill="#333333"></circle> <circle cx="50" cy="74" r="2" transform="rotate(90 50 74)" fill="#333333"></circle> <circle cx="50" cy="50" r="2" transform="rotate(90 50 50)" fill="#333333"></circle> <circle cx="50" cy="110" r="2" transform="rotate(90 50 110)" fill="#333333"></circle> <circle cx="50" cy="26" r="2" transform="rotate(90 50 26)" fill="#333333"></circle> <circle cx="50" cy="86" r="2" transform="rotate(90 50 86)" fill="#333333"></circle> <circle cx="50" cy="62" r="2" transform="rotate(90 50 62)" fill="#333333"></circle> <circle cx="50" cy="122" r="2" transform="rotate(90 50 122)" fill="#333333"></circle> <circle cx="26" cy="2" r="2" transform="rotate(90 26 2)" fill="#333333"></circle> <circle cx="26" cy="38" r="2" transform="rotate(90 26 38)" fill="#333333"></circle> <circle cx="26" cy="98" r="2" transform="rotate(90 26 98)" fill="#333333"></circle> <circle cx="26" cy="14" r="2" transform="rotate(90 26 14)" fill="#333333"></circle> <circle cx="26" cy="74" r="2" transform="rotate(90 26 74)" fill="#333333"></circle> <circle cx="26" cy="50" r="2" transform="rotate(90 26 50)" fill="#333333"></circle> <circle cx="26" cy="110" r="2" transform="rotate(90 26 110)" fill="#333333"></circle> <circle cx="26" cy="26" r="2" transform="rotate(90 26 26)" fill="#333333"></circle> <circle cx="26" cy="86" r="2" transform="rotate(90 26 86)" fill="#333333"></circle> <circle cx="26" cy="62" r="2" transform="rotate(90 26 62)" fill="#333333"></circle> <circle cx="26" cy="122" r="2" transform="rotate(90 26 122)" fill="#333333"></circle> <circle cx="62" cy="2" r="2" transform="rotate(90 62 2)" fill="#333333"></circle> <circle cx="62" cy="38" r="2" transform="rotate(90 62 38)" fill="#333333"></circle> <circle cx="62" cy="98" r="2" transform="rotate(90 62 98)" fill="#333333"></circle> <circle cx="62" cy="14" r="2" transform="rotate(90 62 14)" fill="#333333"></circle> <circle cx="62" cy="74" r="2" transform="rotate(90 62 74)" fill="#333333"></circle> <circle cx="62" cy="50" r="2" transform="rotate(90 62 50)" fill="#333333"></circle> <circle cx="62" cy="110" r="2" transform="rotate(90 62 110)" fill="#333333"></circle> <circle cx="62" cy="26" r="2" transform="rotate(90 62 26)" fill="#333333"></circle> <circle cx="62" cy="86" r="2" transform="rotate(90 62 86)" fill="#333333"></circle> <circle cx="62" cy="62" r="2" transform="rotate(90 62 62)" fill="#333333"></circle> <circle cx="62" cy="122" r="2" transform="rotate(90 62 122)" fill="#333333"></circle> <circle cx="38" cy="2" r="2" transform="rotate(90 38 2)" fill="#333333"></circle> <circle cx="38" cy="38" r="2" transform="rotate(90 38 38)" fill="#333333"></circle> <circle cx="38" cy="98" r="2" transform="rotate(90 38 98)" fill="#333333"></circle> <circle cx="38" cy="14" r="2" transform="rotate(90 38 14)" fill="#333333"></circle> <circle cx="38" cy="74" r="2" transform="rotate(90 38 74)" fill="#333333"></circle> <circle cx="38" cy="50" r="2" transform="rotate(90 38 50)" fill="#333333"></circle> <circle cx="38" cy="110" r="2" transform="rotate(90 38 110)" fill="#333333"></circle> <circle cx="38" cy="26" r="2" transform="rotate(90 38 26)" fill="#333333"></circle> <circle cx="38" cy="86" r="2" transform="rotate(90 38 86)" fill="#333333"></circle> <circle cx="38" cy="62" r="2" transform="rotate(90 38 62)" fill="#333333"></circle> <circle cx="38" cy="122" r="2" transform="rotate(90 38 122)" fill="#333333"></circle> <circle cx="14" cy="2" r="2" transform="rotate(90 14 2)" fill="#333333"></circle> <circle cx="14" cy="38" r="2" transform="rotate(90 14 38)" fill="#333333"></circle> <circle cx="14" cy="98" r="2" transform="rotate(90 14 98)" fill="#333333"></circle> <circle cx="14" cy="14" r="2" transform="rotate(90 14 14)" fill="#333333"></circle> <circle cx="14" cy="74" r="2" transform="rotate(90 14 74)" fill="#333333"></circle> <circle cx="14" cy="50" r="2" transform="rotate(90 14 50)" fill="#333333"></circle> <circle cx="14" cy="110" r="2" transform="rotate(90 14 110)" fill="#333333"></circle> <circle cx="14" cy="26" r="2" transform="rotate(90 14 26)" fill="#333333"></circle> <circle cx="14" cy="86" r="2" transform="rotate(90 14 86)" fill="#333333"></circle> <circle cx="14" cy="62" r="2" transform="rotate(90 14 62)" fill="#333333"></circle> <circle cx="14" cy="122" r="2" transform="rotate(90 14 122)" fill="#333333"></circle> <circle cx="2" cy="2" r="2" transform="rotate(90 2 2)" fill="#333333"></circle> <circle cx="2" cy="38" r="2" transform="rotate(90 2 38)" fill="#333333"></circle> <circle cx="2" cy="98" r="2" transform="rotate(90 2 98)" fill="#333333"></circle> <circle cx="2" cy="14" r="2" transform="rotate(90 2 14)" fill="#333333"></circle> <circle cx="2" cy="74" r="2" transform="rotate(90 2 74)" fill="#333333"></circle> <circle cx="2" cy="50" r="2" transform="rotate(90 2 50)" fill="#333333"></circle> <circle cx="2" cy="110" r="2" transform="rotate(90 2 110)" fill="#333333"></circle> <circle cx="2" cy="26" r="2" transform="rotate(90 2 26)" fill="#333333"></circle> <circle cx="2" cy="86" r="2" transform="rotate(90 2 86)" fill="#333333"></circle> <circle cx="2" cy="62" r="2" transform="rotate(90 2 62)" fill="#333333"></circle> <circle cx="2" cy="122" r="2" transform="rotate(90 2 122)" fill="#333333"></circle> </svg> 