<?xml version="1.0" encoding="UTF-8"?> <svg xmlns="http://www.w3.org/2000/svg" width="20" height="20" viewBox="0 0 20 20" fill="none"> <path d="M19.0351 9.1958H0.804308C0.360083 9.1958 0 9.55612 0 10.0001C0 10.4441 0.360044 10.8044 0.804308 10.8044H19.0351C19.4793 10.8044 19.8394 10.4444 19.8394 10.0001C19.8394 9.55585 19.4794 9.1958 19.0351 9.1958Z" fill="white"></path> <path d="M19.7643 9.43112L11.8825 1.54894C11.5682 1.23499 11.0594 1.23499 10.7452 1.54894C10.431 1.86316 10.431 2.37254 10.7452 2.68649L18.0584 9.99999L10.7452 17.3135C10.431 17.6275 10.431 18.1369 10.7452 18.4508C10.9023 18.6079 11.1079 18.6865 11.3138 18.6865C11.5197 18.6865 11.7254 18.6079 11.8825 18.4508L19.7643 10.5687C20.0786 10.2544 20.0786 9.74503 19.7643 9.43112Z" fill="white"></path> </svg> 