<?xml version="1.0" encoding="UTF-8"?> <svg xmlns="http://www.w3.org/2000/svg" width="40" height="40" viewBox="0 0 40 40" fill="none"> <rect width="40" height="40" fill="#242424"></rect> <path d="M23.9364 27H15.3164L20.1764 21.38C21.0031 20.4067 21.5231 19.76 21.7364 19.44C22.2297 18.7333 22.4764 18.0533 22.4764 17.4C22.4764 16.64 22.2297 16.02 21.7364 15.54C21.2431 15.0467 20.6031 14.8 19.8164 14.8C18.8564 14.8 18.1164 15.1933 17.5964 15.98C17.3164 16.4067 17.1697 16.9333 17.1564 17.56H15.6764C15.7297 16.4267 16.0631 15.5067 16.6764 14.8C17.4764 13.8933 18.5297 13.44 19.8364 13.44C21.0231 13.44 22.0031 13.82 22.7764 14.58C23.5631 15.3267 23.9564 16.2733 23.9564 17.42C23.9564 18.3133 23.6031 19.2667 22.8964 20.28C22.5364 20.7733 21.9297 21.5133 21.0764 22.5L18.2964 25.64H23.9364V27Z" fill="#9A9A9A"></path> </svg> 